<svg xmlns="http://www.w3.org/2000/svg" version="1.1" xmlns:xlink="http://www.w3.org/1999/xlink" xmlns:svgjs="http://svgjs.dev/svgjs" width="1300" height="1200" preserveAspectRatio="none" viewBox="0 0 1300 1200"><g mask="url(&quot;#SvgjsMask1056&quot;)" fill="none"><rect width="1300" height="1200" x="0" y="0" fill="rgba(18, 20, 26, 1)"></rect><path d="M0,589.937C110.807,593.183,225.046,551.027,304.335,473.554C378.573,401.016,364.113,280.272,411.455,187.905C462.101,89.092,599.342,25.778,590.572,-84.911C581.899,-194.377,454.781,-250.461,371.09,-321.551C299.473,-382.385,222.741,-429.182,137.848,-469.468C37.557,-517.061,-60.568,-598.118,-169.782,-578.223C-280.307,-558.089,-356.083,-456.86,-423.735,-367.169C-487.996,-281.973,-538.743,-185.016,-546.641,-78.595C-554.258,24.042,-510.904,120.19,-466.804,213.182C-423.272,304.975,-372.144,392.249,-293.088,456.054C-207.78,524.906,-109.58,586.727,0,589.937" fill="#0e1015"></path><path d="M1300 1663.536C1416.66 1691.231 1534.368 1783.233 1644.786 1736.4969999999998 1753.634 1690.425 1791.306 1553.319 1826.7759999999998 1440.57 1859.254 1337.3319999999999 1868.884 1226.356 1837.894 1122.662 1809.2 1026.648 1722.856 966.006 1661.315 886.919 1595.578 802.44 1565.728 674.826 1463.85 641.979 1362.022 609.148 1263.269 695.1469999999999 1160.675 725.502 1058.345 755.779 924.5029999999999 733.925 861.6379999999999 820.158 798.165 907.225 879.581 1030.756 860.794 1136.852 841.018 1248.533 707.243 1346.132 749.891 1451.226 792.029 1555.064 941.948 1554.114 1046.494 1594.463 1129.891 1626.649 1213.024 1642.888 1300 1663.536" fill="#16181f"></path></g><defs><mask id="SvgjsMask1056"><rect width="1300" height="1200" fill="#ffffff"></rect></mask></defs></svg>