<svg xmlns="http://www.w3.org/2000/svg" version="1.1" xmlns:xlink="http://www.w3.org/1999/xlink" xmlns:svgjs="http://svgjs.dev/svgjs" width="1536" height="1200" preserveAspectRatio="none" viewBox="0 0 1536 1200"><g mask="url(&quot;#SvgjsMask1044&quot;)" fill="none"><rect width="1536" height="1200" x="0" y="0" fill="#12141a"></rect><path d="M0,604.386C116.139,593.491,224.84,563.373,331.025,515.085C453.085,459.577,599.123,420.67,663.109,302.832C727.737,183.812,679.969,39.052,662.432,-95.243C644.663,-231.311,667.508,-399.898,560.176,-485.396C450.43,-572.817,284.371,-470.877,148.234,-504.839C20.928,-536.598,-73.353,-715.321,-198.067,-674.554C-324.046,-633.373,-312.916,-444.223,-382.426,-331.374C-437.569,-241.85,-549.831,-185.272,-563.646,-81.04C-577.437,23.01,-482.783,106.367,-453.816,207.251C-417.905,332.317,-471.419,495.485,-373.499,581.175C-277.687,665.02,-126.761,616.277,0,604.386" fill="#0e1015"></path><path d="M1536 1661.641C1621.202 1652.83 1658.8 1549.254 1728.083 1498.887 1791.891 1452.5 1874.2640000000001 1437.654 1926.012 1378.112 1988.998 1305.639 2076.821 1218.61 2052.369 1125.757 2027.2069999999999 1030.209 1897.841 1012.333 1815.3609999999999 957.932 1756.768 919.2860000000001 1701.145 883.2139999999999 1638.04 852.483 1561.625 815.27 1490.046 743.429 1406.452 758.799 1322.766 774.1859999999999 1280.24 865.825 1223.011 928.793 1164.26 993.436 1093.687 1049.432 1066.778 1132.536 1037.194 1223.902 1015.578 1332.851 1065.641 1414.806 1115.491 1496.412 1231.891 1497.009 1316.567 1541.445 1391.942 1581 1451.329 1670.397 1536 1661.641" fill="#16181f"></path></g><defs><mask id="SvgjsMask1044"><rect width="1536" height="1200" fill="#ffffff"></rect></mask></defs></svg>