<svg xmlns="http://www.w3.org/2000/svg" version="1.1" xmlns:xlink="http://www.w3.org/1999/xlink" xmlns:svgjs="http://svgjs.dev/svgjs" width="1500" height="900" preserveAspectRatio="none" viewBox="0 0 1500 900"><g mask="url(&quot;#SvgjsMask1103&quot;)" fill="none"><rect width="1500" height="900" x="0" y="0" fill="rgba(18, 20, 26, 1)"></rect><path d="M0,693.864C128.208,692.831,198.889,544.363,296.164,460.841C378.562,390.092,479.927,338.53,527.53,240.915C575.714,142.108,562.724,29.359,560.174,-80.541C557.285,-205.042,579.919,-339.192,511.651,-443.348C440.705,-551.588,315.98,-617.791,189.64,-645.855C67.412,-673.006,-59.471,-644.227,-174.962,-595.867C-282.037,-551.03,-367.989,-472.361,-440.73,-381.894C-511.358,-294.054,-556.976,-193.13,-586.295,-84.297C-618.943,36.895,-677.948,171.817,-619.87,283.085C-561.786,394.364,-403.884,396.298,-299.248,465.639C-192.515,536.369,-128.038,694.896,0,693.864" fill="#0e1015"></path><path d="M1500 1426.768C1602.181 1430.995 1702.412 1403.787 1791.5729999999999 1353.696 1884.532 1301.472 1977.103 1234.995 2017.208 1136.201 2056.76 1038.768 2034.167 928.454 2005.234 827.358 1979.025 735.778 1927.7350000000001 655.072 1860.269 587.825 1796.305 524.069 1714.148 489.22 1630.8899999999999 454.229 1537.426 414.948 1439.717 335.75 1344.716 371.15099999999995 1248.873 406.866 1248.258 546.559 1179.62 622.389 1108.63 700.817 958.929 715.4490000000001 939.029 819.345 919.344 922.119 1039.724 995.528 1090.638 1086.949 1136.521 1169.337 1150.971 1269.962 1223.531 1330.195 1300.194 1393.834 1400.45 1422.649 1500 1426.768" fill="#16181f"></path></g><defs><mask id="SvgjsMask1103"><rect width="1500" height="900" fill="#ffffff"></rect></mask></defs></svg>