<svg xmlns="http://www.w3.org/2000/svg" version="1.1" xmlns:xlink="http://www.w3.org/1999/xlink" xmlns:svgjs="http://svgjs.dev/svgjs" width="1100" height="1300" preserveAspectRatio="none" viewBox="0 0 1100 1300"><g mask="url(&quot;#SvgjsMask1129&quot;)" fill="none"><rect width="1100" height="1300" x="0" y="0" fill="rgba(18, 20, 26, 1)"></rect><path d="M0,459.265C91.4,448.281,180.71,447.516,267.016,415.486C372.372,376.386,502.071,352.607,554.799,253.368C607.54,154.106,550.827,34.154,528.121,-75.932C506.771,-179.441,497.184,-290.997,426.341,-369.427C356.033,-447.265,250.129,-483.074,146.387,-498.547C51.134,-512.754,-39.367,-475.518,-132.968,-452.849C-231.799,-428.913,-338.334,-425.514,-417.692,-361.932C-504.543,-292.347,-583.925,-196.109,-591.952,-85.11C-599.886,24.608,-507.548,110.906,-459.023,209.629C-412.149,304.993,-405.061,434.267,-311.712,485.034C-218.228,535.874,-105.654,471.962,0,459.265" fill="#0e1015"></path><path d="M1100 1819.02C1206.561 1841.417 1331.85 1861.7150000000001 1419.281 1796.81 1506.689 1731.922 1490.234 1597.848 1532.863 1497.682 1574.004 1401.01 1664.472 1323.781 1665.3029999999999 1218.722 1666.175 1108.475 1615.624 998.6859999999999 1537.422 920.971 1461.5149999999999 845.537 1346.167 840.307 1246.1680000000001 802.197 1135.907 760.176 1028.962 641.276 919.568 685.506 807.336 730.884 819.335 898.457 754.788 1000.8720000000001 703.145 1082.813 610.298 1133.343 579.453 1225.157 545.288 1326.855 517.555 1448.906 573.523 1540.434 629.446 1631.8890000000001 761.9580000000001 1628.432 856.708 1678.569 941.187 1723.271 1006.467 1799.3609999999999 1100 1819.02" fill="#16181f"></path></g><defs><mask id="SvgjsMask1129"><rect width="1100" height="1300" fill="#ffffff"></rect></mask></defs></svg>