<svg xmlns="http://www.w3.org/2000/svg" version="1.1" xmlns:xlink="http://www.w3.org/1999/xlink" xmlns:svgjs="http://svgjs.dev/svgjs" width="850" height="1000" preserveAspectRatio="none" viewBox="0 0 850 1000"><g mask="url(&quot;#SvgjsMask1093&quot;)" fill="none"><rect width="850" height="1000" x="0" y="0" fill="rgba(18, 20, 26, 1)"></rect><path d="M0,451.399C82.978,446.886,139.36,370.465,210.782,327.984C285.422,283.589,393.974,275.39,429.305,196.057C464.66,116.67,404.225,28.998,381.26,-54.817C361.28,-127.736,350.048,-203.406,303.522,-263.003C255.527,-324.481,187.176,-363.054,115.902,-394.725C35.678,-430.373,-51.689,-487.117,-134.357,-457.576C-217.189,-427.976,-242.102,-324.762,-288.686,-250.148C-327.865,-187.395,-367.756,-127.252,-385.436,-55.417C-404.609,22.485,-423.849,105.503,-394.604,180.21C-364.779,256.399,-293.479,305.398,-226.049,351.739C-156.78,399.344,-83.926,455.963,0,451.399" fill="#0e1015"></path><path d="M850 1271.3890000000001C908.437 1288.325 978.5260000000001 1312.4769999999999 1028.704 1278.069 1079.071 1243.532 1076.219 1168.499 1087.56 1108.49 1096.574 1060.795 1085.845 1014.325 1087.716 965.822 1090.116 903.621 1129.9769999999999 837.894 1100.106 783.282 1070.191 728.5899999999999 1001.906 694.783 939.567 694.9639999999999 879.327 695.139 844.611 767.8389999999999 786.634 784.194 727.606 800.846 653.237 749.314 606.427 788.943 561.171 827.256 579.923 901.62 577.927 960.882 576.136 1014.053 566.3969999999999 1071.672 595.4 1116.272 623.514 1159.504 683.3720000000001 1163.921 727.4110000000001 1190.752 770.044 1216.726 802.051 1257.493 850 1271.3890000000001" fill="#16181f"></path></g><defs><mask id="SvgjsMask1093"><rect width="850" height="1000" fill="#ffffff"></rect></mask></defs></svg>