<svg xmlns="http://www.w3.org/2000/svg" version="1.1" xmlns:xlink="http://www.w3.org/1999/xlink" xmlns:svgjs="http://svgjs.dev/svgjs" width="1500" height="900" preserveAspectRatio="none" viewBox="0 0 1500 900"><g mask="url(&quot;#SvgjsMask1022&quot;)" fill="none"><rect width="1500" height="900" x="0" y="0" fill="rgba(230, 235, 239, 1)"></rect><path d="M0,610.952C111.986,600.529,173.824,478.363,270.626,421.102C372.692,360.728,517.756,365.3,582.855,266.181C648.917,165.595,613.795,33.082,604.254,-86.879C594.091,-214.662,602.331,-352.734,525.471,-455.323C446.895,-560.202,313.287,-601.936,188.465,-641.853C61.051,-682.598,-81.131,-745.269,-202.004,-687.961C-322.495,-630.835,-328.781,-461.201,-412.122,-357.106C-490.761,-258.883,-629.257,-214.244,-675.088,-97.063C-725.137,30.903,-746.434,191.437,-671.778,306.791C-597.222,421.99,-430.064,418.085,-305.06,474.683C-201.507,521.569,-113.184,621.486,0,610.952" fill="#adbdca"></path><path d="M1500 1282.453C1578.223 1300.128 1664.444 1303.747 1735.127 1265.864 1807.726 1226.954 1868.442 1156.583 1885.287 1075.955 1901.373 998.9590000000001 1841.057 929.93 1821.212 853.817 1804.153 788.391 1812.752 717.4 1776.8609999999999 660.0989999999999 1737.685 597.553 1677.314 553.296 1611.752 519.408 1534.855 479.661 1449.987 422.48 1367.416 448.461 1284.794 474.458 1245.044 568.511 1207.55 646.59 1176.731 710.77 1179.896 782.13 1173.152 853.006 1166.766 920.126 1140.2350000000001 990.184 1169.057 1051.136 1197.791 1111.903 1269.408 1134.5720000000001 1324.502 1173.0810000000001 1382.167 1213.387 1431.375 1266.9470000000001 1500 1282.453" fill="#ffffff"></path></g><defs><mask id="SvgjsMask1022"><rect width="1500" height="900" fill="#ffffff"></rect></mask></defs></svg>